# xmcd
# 
# Track frame offsets:
#     150
#     14052
#     25382
#     41152
#     55257
#     78457
#     97822
#     118335
#     137595
#     156165
# 
# Disc length: 2433
# 
# Revision: 29
# Processed by: cddbd v1.5.2PL0 Copyright (c) Steve Scherf et al.
# Submitted via: fre:ac v1.0.17
# 
DISCID=84097f0a
DTITLE=Pink Floyd - Obscured by Clouds
DYEAR=1972
DGENRE=Psychedelic Rock
TTITLE0=Obscured by Clouds
TTITLE1=When You're In
TTITLE2=Burning Bridges
TTITLE3=The Gold It's in the ...
TTITLE4=Wot's ... Uh the Deal
TTITLE5=Mudmen
TTITLE6=Childhood's End
TTITLE7=Free Four
TTITLE8=Stay
TTITLE9=Absolutely Curtains
EXTD=
EXTT0=Waters - Gilmour
EXTT1=Mason - Gilmour - Waters - Wright
EXTT2=Waters - Wright
EXTT3=Waters - Gilmour
EXTT4=Waters - Gilmour
EXTT5=Wright - Gilmour
EXTT6=David Gilmour
EXTT7=Roger Waters
EXTT8=Wright - Waters
EXTT9=Mason - Gilmour - Waters - Wright
PLAYORDER=
